Coordinates
version=1
nRows=11
nColumns=46
inDegrees=yes

Units are S.I. units (second, meters, Newtons, ...)
Angles are in degrees.

endheader
time	pelvis_tilt	pelvis_list	pelvis_rotation	pelvis_tx	pelvis_ty	pelvis_tz	bb_angle	bb_tx	bb_ty	bb_tz	hip_flexion_r	hip_adduction_r	hip_rotation_r	knee_angle_r	knee_angle_r_beta	ankle_angle_r	subtalar_angle_r	mtp_angle_r	crank_angle_r	hip_flexion_l	hip_adduction_l	hip_rotation_l	knee_angle_l	knee_angle_l_beta	ankle_angle_l	subtalar_angle_l	mtp_angle_l	crank_angle_l	lumbar_extension	lumbar_bending	lumbar_rotation	arm_flex_r	arm_add_r	arm_rot_r	elbow_flex_r	pro_sup_r	wrist_flex_r	wrist_dev_r	arm_flex_l	arm_add_l	arm_rot_l	elbow_flex_l	pro_sup_l	wrist_flex_l	wrist_dev_l
      0.00500000	    -23.97209109	     -4.40589376	     -3.41407753	      0.10144304	      1.12363872	     -0.22476408	      0.00000000	      0.50000000	      0.00000000	      0.25000000	     97.04877181	     -9.52289525	     -7.72171615	     97.57302665	      1.70297058	     28.22220483	      8.68812130	      0.00000000	      0.00000000	     58.83827859	    -17.86519189	     -8.75597841	     59.84163957	      1.04443364	     10.65949969	     12.02007890	      0.00000000	      0.00000000	    -47.35580658	      2.62373150	      6.97949077	     89.68872355	     -8.17911858	     29.65851130	     39.83587196	     22.27209927	      0.00000000	      0.00000000	     89.69784610	     -1.70738791	     26.71795176	     33.22340766	     21.15610032	      0.00000000	      0.00000000
      0.01000000	    -23.97175841	     -4.40571943	     -3.40636246	      0.10143792	      1.12362503	     -0.22478228	      0.00000000	      0.50000000	      0.00000000	      0.25000000	     97.04911051	     -9.53303033	     -7.71705672	     97.57312655	      1.70297232	     28.21610821	      8.71452117	      0.00000000	      0.00000000	     58.84547752	    -17.86411636	     -8.76063099	     59.84848914	      1.04455319	     10.63710683	     12.04496511	      0.00000000	      0.00000000	    -47.36380259	      2.62642501	      6.97859594	     89.68883326	     -8.12029942	     29.39721713	     39.52309256	     23.90020841	      0.00000000	      0.00000000	     89.69781622	     -1.56821309	     26.18377507	     32.92480747	     22.73587774	      0.00000000	      0.00000000
      0.01500000	    -23.97150237	     -4.39745846	     -3.40799147	      0.10143501	      1.12363206	     -0.22476528	      0.00000000	      0.50000000	      0.00000000	      0.25000000	     97.05229651	     -9.52712785	     -7.70967041	     97.57152862	      1.70294443	     28.22036594	      8.68167512	      0.00000000	      0.00000000	     58.83540145	    -17.85411524	     -8.75871373	     59.83697062	      1.04435215	     10.67231730	     12.03347706	      0.00000000	      0.00000000	    -47.35233109	      2.63368488	      6.94992020	     89.69008222	     -8.18372420	     29.78030394	     39.66077003	     23.23605941	      0.00000000	      0.00000000	     89.69825847	     -1.95806846	     27.42162728	     33.28081465	     21.17336351	      0.00000000	      0.00000000
      0.02000000	    -24.02778516	     -4.41211953	     -3.48024819	      0.10137756	      1.12338867	     -0.22448494	      0.00000000	      0.50000000	      0.00000000	      0.25000000	     97.15759472	     -9.43204344	     -7.71787890	     97.59351024	      1.70332808	     28.15843926	      8.68307068	      0.00000000	      0.00000000	     58.86713193	    -17.80891211	     -8.65186108	     59.77299819	      1.04323562	     10.63601272	     12.31840829	      0.00000000	      0.00000000	    -47.30982231	      2.65990362	      7.03789946	     89.68992210	     -8.08192336	     29.48512929	     39.48569871	     24.63952999	      0.00000000	      0.00000000	     89.69795693	     -1.88674222	     26.78909597	     33.03208286	     22.70184489	      0.00000000	      0.00000000
      0.02500000	    -23.96120961	     -4.42530002	     -3.44948476	      0.10132479	      1.12366777	     -0.22481963	      0.00000000	      0.50000000	      0.00000000	      0.25000000	     97.05405442	     -9.48484692	     -7.73594716	     97.56401944	      1.70281337	     28.21786626	      8.76010621	      0.00000000	      0.00000000	     58.83798680	    -17.92811219	     -8.72418621	     59.89264947	      1.04532393	     10.88513225	     12.28844281	      0.00000000	      0.00000000	    -47.42891323	      2.63275291	      7.07345811	     89.68488337	     -8.09788857	     29.03718913	     39.60726242	     25.42596158	      0.00000000	      0.00000000	     89.68783521	     -1.84717194	     26.39688186	     33.28335231	     23.57951031	      0.00000000	      0.00000000
      0.03000000	    -24.05747392	     -4.40385776	     -3.45991553	      0.10125960	      1.12348114	     -0.22465672	      0.00000000	      0.50000000	      0.00000000	      0.25000000	     97.17871807	     -9.41632913	     -7.69105543	     97.57462742	      1.70299851	     28.17771625	      8.57381483	      0.00000000	      0.00000000	     58.95055863	    -17.93243423	     -8.72407278	     59.88884532	      1.04525754	     10.73195549	     12.35709525	      0.00000000	      0.00000000	    -47.23780899	      2.60802541	      7.04605676	     89.69077860	     -8.31389526	     29.89791868	     38.98727503	     26.91147065	      0.00000000	      0.00000000	     89.69622391	     -2.05473466	     27.47839192	     32.62085058	     25.18555356	      0.00000000	      0.00000000
      0.03500000	    -24.05360967	     -4.40901349	     -3.45503357	      0.10124282	      1.12350981	     -0.22466404	      0.00000000	      0.50000000	      0.00000000	      0.25000000	     97.17029917	     -9.41996359	     -7.69591576	     97.56816222	      1.70288568	     28.17138435	      8.57414319	      0.00000000	      0.00000000	     58.94826780	    -17.92788777	     -8.71095448	     59.88512037	      1.04519252	     10.73295140	     12.33294988	      0.00000000	      0.00000000	    -47.24605781	      2.61287440	      7.03919587	     89.68904793	     -8.07826458	     29.22147041	     38.73112142	     27.68521829	      0.00000000	      0.00000000	     89.69551691	     -1.83799575	     26.67062294	     32.42471225	     25.98083579	      0.00000000	      0.00000000
      0.04000000	    -24.05463262	     -4.40956198	     -3.43275957	      0.10121230	      1.12349791	     -0.22472156	      0.00000000	      0.50000000	      0.00000000	      0.25000000	     97.17384076	     -9.44363512	     -7.69578027	     97.57336307	      1.70297645	     28.16925233	      8.57088519	      0.00000000	      0.00000000	     58.95901479	    -17.89598645	     -8.68154102	     59.88671181	      1.04522030	     10.72564743	     12.28983455	      0.00000000	      0.00000000	    -47.24394911	      2.62674167	      7.00956634	     89.68996964	     -8.02103622	     29.05842322	     38.59893240	     28.18051609	      0.00000000	      0.00000000	     89.69592226	     -1.78068033	     26.40642066	     32.31151243	     26.47589269	      0.00000000	      0.00000000
      0.04500000	    -24.02932721	     -4.40572601	     -3.42704118	      0.10124134	      1.12355515	     -0.22473683	      0.00000000	      0.50000000	      0.00000000	      0.25000000	     97.14446457	     -9.45270949	     -7.68302768	     97.57365630	      1.70298157	     28.18508768	      8.59415727	      0.00000000	      0.00000000	     58.92002656	    -17.89631568	     -8.69945049	     59.87155906	      1.04495583	     10.73020533	     12.31078954	      0.00000000	      0.00000000	    -47.26935442	      2.63548119	      7.00352192	     89.69006681	     -8.10901250	     29.66843866	     39.67505843	     22.92470183	      0.00000000	      0.00000000	     89.69397668	     -2.06185252	     27.65580891	     33.41954720	     20.73482017	      0.00000000	      0.00000000
      0.05000000	    -24.04036287	     -4.40379367	     -3.43510040	      0.10121769	      1.12351584	     -0.22470472	      0.00000000	      0.50000000	      0.00000000	      0.25000000	     97.15945713	     -9.44312075	     -7.69404129	     97.57138620	      1.70294194	     28.16343040	      8.55174027	      0.00000000	      0.00000000	     58.93897119	    -17.90603890	     -8.70576514	     59.88955848	      1.04526998	     10.75354564	     12.33108499	      0.00000000	      0.00000000	    -47.25761597	      2.62205461	      7.04285239	     89.68886955	     -8.29859185	     29.83816210	     39.22015804	     25.59397819	      0.00000000	      0.00000000	     89.69718822	     -2.06308861	     27.64204072	     32.84124385	     23.83520250	      0.00000000	      0.00000000
      0.05500000	    -24.03163478	     -4.39716666	     -3.41545294	      0.10124788	      1.12352914	     -0.22474695	      0.00000000	      0.50000000	      0.00000000	      0.25000000	     97.15560549	     -9.47534090	     -7.68660902	     97.58277712	      1.70314075	     28.17390760	      8.58405430	      0.00000000	      0.00000000	     58.92640143	    -17.88595888	     -8.71197539	     59.88565547	      1.04520186	     10.74801224	     12.34257767	      0.00000000	      0.00000000	    -47.26453241	      2.62362522	      7.01899164	     89.69248547	     -8.26130580	     29.70098918	     38.93171856	     27.06051373	      0.00000000	      0.00000000	     89.69569425	     -1.96418188	     27.23495575	     32.57532467	     25.38978751	      0.00000000	      0.00000000
